<?xml version="1.0" standalone="no"?>
<!DOCTYPE svg PUBLIC "-//W3C//DTD SVG 20010904//EN"
 "http://www.w3.org/TR/2001/REC-SVG-20010904/DTD/svg10.dtd">
<svg version="1.0" xmlns="http://www.w3.org/2000/svg"
 width="395.000000pt" height="632.000000pt" viewBox="0 0 395.000000 632.000000"
 preserveAspectRatio="xMidYMid meet">

<g transform="translate(0.000000,632.000000) scale(0.100000,-0.100000)"
fill="red" stroke="none">
<path d="M1856 5259 c-322 -34 -642 -159 -906 -353 -44 -32 -135 -115 -202
-185 -314 -322 -481 -703 -504 -1147 -20 -402 104 -807 350 -1139 280 -378
681 -620 1161 -702 124 -21 413 -24 535 -4 212 33 395 92 580 187 451 231 793
661 910 1148 47 193 59 316 50 501 -19 377 -137 700 -364 1000 -369 487 -999
758 -1610 694z m-20 -394 c18 -14 39 -25 47 -25 16 0 97 -88 97 -104 0 -5 9
-19 19 -30 33 -36 47 -186 17 -186 -7 0 -22 -17 -33 -37 -40 -71 -134 -158
-203 -190 -71 -32 -135 -37 -246 -20 -31 5 -83 65 -95 111 -15 53 2 225 25
258 9 12 16 29 16 38 0 22 105 151 142 174 33 21 81 33 142 35 28 1 49 -6 72
-24z"/>
</g>
</svg>
