<?xml version="1.0" standalone="no"?>
<!DOCTYPE svg PUBLIC "-//W3C//DTD SVG 20010904//EN"
 "http://www.w3.org/TR/2001/REC-SVG-20010904/DTD/svg10.dtd">
<svg version="1.0" xmlns="http://www.w3.org/2000/svg"
 width="500.000000pt" height="500.000000pt" viewBox="0 0 500.000000 500.000000"
 preserveAspectRatio="xMidYMid meet">

<g transform="translate(0.000000,500.000000) scale(0.100000,-0.100000)"
fill="#000000" stroke="none">
<path d="M2082 4159 c-51 -10 -121 -29 -155 -43 -34 -13 -69 -26 -78 -29 -42
-14 -141 -88 -204 -152 -78 -80 -130 -169 -166 -285 -23 -75 -43 -112 -83
-154 -11 -13 -32 -38 -46 -56 -14 -19 -53 -69 -87 -112 -35 -43 -63 -82 -63
-87 0 -5 -7 -14 -15 -21 -16 -14 -36 -41 -144 -205 -75 -112 -168 -289 -201
-380 -118 -328 -182 -597 -210 -878 l-11 -109 34 -42 c19 -23 65 -68 102 -101
37 -33 75 -67 84 -75 9 -8 37 -30 61 -48 25 -18 66 -48 92 -67 26 -19 50 -35
53 -35 4 0 19 -8 33 -19 100 -70 337 -180 512 -236 182 -58 351 -86 547 -92
115 -3 211 -1 262 6 109 16 255 53 335 85 l67 27 62 -54 c91 -78 162 -120 252
-149 149 -48 239 -47 465 8 90 22 137 38 245 85 83 35 209 124 285 199 104
105 171 215 221 365 34 99 34 101 33 280 0 176 -1 182 -33 280 -54 162 -124
277 -234 387 -70 69 -87 82 -160 126 -282 170 -650 162 -1026 -20 -58 -29
-117 -59 -131 -69 -147 -100 -169 -105 -295 -69 -116 33 -263 60 -329 60 -78
0 -202 -31 -260 -65 l-44 -26 -7 108 c-3 59 -13 190 -21 289 l-14 181 25 96
c14 53 40 131 58 174 32 75 82 163 92 163 3 0 32 -13 64 -30 127 -64 267 -83
399 -56 37 7 96 19 132 26 181 33 292 94 329 179 25 60 26 85 5 170 -29 117
-138 301 -213 361 -147 118 -377 158 -619 109z"/>
</g>
</svg>
